%FSLAX25Y25*%
%MOIN*%
G70*
G01*
G75*
G04 Layer_Color=32896*
%ADD10R,0.02165X0.03740*%
%ADD11R,0.04400X0.05700*%
%ADD12R,0.06890X0.05709*%
%ADD13O,0.02953X0.01181*%
%ADD14R,0.05700X0.04400*%
%ADD15R,0.03937X0.02756*%
%ADD16R,0.02600X0.03800*%
%ADD17R,0.05709X0.05709*%
%ADD18R,0.00984X0.01969*%
%ADD19R,0.01181X0.01969*%
%ADD20R,0.01969X0.00984*%
%ADD21R,0.01969X0.01181*%
%ADD22R,0.08465X0.06299*%
%ADD23O,0.00945X0.02362*%
%ADD24R,0.02200X0.02400*%
%ADD25R,0.17700X0.07100*%
%ADD26R,0.07100X0.14200*%
%ADD27R,0.02400X0.02200*%
%ADD28R,0.05906X0.05906*%
%ADD29R,0.05906X0.04724*%
%ADD30C,0.00800*%
%ADD31C,0.00787*%
%ADD32C,0.01969*%
%ADD33C,0.01181*%
%ADD34C,0.03937*%
%ADD35C,0.02378*%
%ADD36C,0.05906*%
%ADD37R,0.05906X0.05906*%
%ADD38C,0.00984*%
%ADD39C,0.00394*%
%ADD40C,0.00600*%
%ADD41C,0.01000*%
%ADD42R,0.03365X0.04940*%
%ADD43R,0.05600X0.06900*%
%ADD44R,0.08090X0.06909*%
%ADD45O,0.04153X0.02381*%
%ADD46R,0.06900X0.05600*%
%ADD47R,0.05137X0.03956*%
%ADD48R,0.03800X0.05000*%
%ADD49R,0.06909X0.06909*%
%ADD50R,0.02184X0.03169*%
%ADD51R,0.02381X0.03169*%
%ADD52R,0.03169X0.02184*%
%ADD53R,0.03169X0.02381*%
%ADD54R,0.08865X0.06699*%
%ADD55O,0.01345X0.02762*%
%ADD56R,0.03400X0.03600*%
%ADD57R,0.18900X0.08300*%
%ADD58R,0.08300X0.15400*%
%ADD59R,0.03600X0.03400*%
%ADD60R,0.07106X0.07106*%
%ADD61R,0.07106X0.05924*%
%ADD62C,0.03578*%
%ADD63C,0.07106*%
%ADD64R,0.07106X0.07106*%
G36*
X81019Y-5164D02*
Y-5964D01*
X81819D01*
Y-6764D01*
X82619D01*
Y-7564D01*
X85019D01*
Y-6764D01*
X86619D01*
Y-7564D01*
Y-8364D01*
X85819D01*
Y-9164D01*
Y-9964D01*
Y-10764D01*
X86619D01*
Y-11564D01*
X87419D01*
Y-12364D01*
X89019D01*
Y-13164D01*
Y-13964D01*
X87419D01*
Y-14764D01*
X86619D01*
Y-15564D01*
X85819D01*
Y-16364D01*
Y-17164D01*
Y-17964D01*
X86619D01*
Y-18764D01*
Y-19564D01*
X85019D01*
Y-18764D01*
X82619D01*
Y-17964D01*
Y-17164D01*
Y-16364D01*
X81819D01*
Y-15564D01*
X82619D01*
Y-14764D01*
X83419D01*
Y-13964D01*
Y-13164D01*
Y-12364D01*
Y-11564D01*
X82619D01*
Y-10764D01*
X81819D01*
Y-9964D01*
X79419D01*
Y-10764D01*
X77819D01*
Y-11564D01*
X77019D01*
Y-12364D01*
Y-13164D01*
Y-13964D01*
Y-14764D01*
X77819D01*
Y-15564D01*
X78619D01*
Y-16364D01*
Y-17164D01*
X77819D01*
Y-17964D01*
Y-18764D01*
X76219D01*
Y-19564D01*
X73819D01*
Y-18764D01*
Y-17964D01*
X74619D01*
Y-17164D01*
Y-16364D01*
Y-15564D01*
X73819D01*
Y-14764D01*
X73019D01*
Y-13964D01*
X71419D01*
Y-13164D01*
Y-12364D01*
X73019D01*
Y-11564D01*
X73819D01*
Y-10764D01*
X74619D01*
Y-9964D01*
Y-9164D01*
Y-8364D01*
X73819D01*
Y-7564D01*
Y-6764D01*
X76219D01*
Y-7564D01*
X77819D01*
Y-6764D01*
X79419D01*
Y-5964D01*
Y-5164D01*
Y-4364D01*
X81019D01*
Y-5164D01*
D02*
G37*
D40*
X180118Y-92473D02*
Y-94473D01*
X179118Y-95472D01*
X178119Y-94473D01*
Y-92473D01*
X177119Y-92973D02*
X176619Y-92473D01*
X175620D01*
X175120Y-92973D01*
Y-94973D01*
X175620Y-95472D01*
X176619D01*
X177119Y-94973D01*
Y-92973D01*
X174120Y-95472D02*
Y-94973D01*
X173620D01*
Y-95472D01*
X174120D01*
X171621D02*
X170621D01*
X171121D01*
Y-92473D01*
X171621Y-92973D01*
D41*
X160433Y-59947D02*
Y-63946D01*
X158434Y-65945D01*
X156434Y-63946D01*
Y-59947D01*
X154435D02*
Y-65945D01*
X151436D01*
X150436Y-64945D01*
Y-63946D01*
X151436Y-62946D01*
X154435D01*
X151436D01*
X150436Y-61946D01*
Y-60947D01*
X151436Y-59947D01*
X154435D01*
X148437Y-65945D02*
Y-61946D01*
X146438Y-59947D01*
X144438Y-61946D01*
Y-65945D01*
Y-62946D01*
X148437D01*
X142439Y-59947D02*
X138440D01*
X140439D01*
Y-65945D01*
X130443Y-59947D02*
Y-65945D01*
X121446Y-59947D02*
Y-65945D01*
X118447D01*
X117447Y-64945D01*
Y-63946D01*
X118447Y-62946D01*
X121446D01*
X118447D01*
X117447Y-61946D01*
Y-60947D01*
X118447Y-59947D01*
X121446D01*
X111449Y-60947D02*
X112449Y-59947D01*
X114448D01*
X115448Y-60947D01*
Y-61946D01*
X114448Y-62946D01*
X112449D01*
X111449Y-63946D01*
Y-64945D01*
X112449Y-65945D01*
X114448D01*
X115448Y-64945D01*
X109450Y-59947D02*
X107450D01*
X108450D01*
Y-65945D01*
X109450D01*
X107450D01*
X160433Y-75787D02*
Y-69789D01*
X157434D01*
X156434Y-70789D01*
Y-72788D01*
X157434Y-73788D01*
X160433D01*
X154435Y-69789D02*
Y-75787D01*
X152436Y-73788D01*
X150436Y-75787D01*
Y-69789D01*
X148437Y-76787D02*
X144438D01*
X138440Y-70789D02*
X139440Y-69789D01*
X141439D01*
X142439Y-70789D01*
Y-71789D01*
X141439Y-72788D01*
X139440D01*
X138440Y-73788D01*
Y-74788D01*
X139440Y-75787D01*
X141439D01*
X142439Y-74788D01*
X136441Y-69789D02*
X132442D01*
X134441D01*
Y-75787D01*
X124445Y-69789D02*
Y-75787D01*
X111449Y-70789D02*
X112449Y-69789D01*
X114448D01*
X115448Y-70789D01*
Y-74788D01*
X114448Y-75787D01*
X112449D01*
X111449Y-74788D01*
X109450Y-69789D02*
Y-75787D01*
Y-72788D01*
X105451D01*
Y-69789D01*
Y-75787D01*
X103452Y-76787D02*
X99453D01*
X93455Y-70789D02*
X94454Y-69789D01*
X96454D01*
X97453Y-70789D01*
Y-71789D01*
X96454Y-72788D01*
X94454D01*
X93455Y-73788D01*
Y-74788D01*
X94454Y-75787D01*
X96454D01*
X97453Y-74788D01*
X91455Y-69789D02*
X87457D01*
X89456D01*
Y-75787D01*
X160433Y-79632D02*
Y-84630D01*
X159433Y-85630D01*
X157434D01*
X156434Y-84630D01*
Y-79632D01*
X150436Y-85630D02*
X154435D01*
X150436Y-81631D01*
Y-80632D01*
X151436Y-79632D01*
X153435D01*
X154435Y-80632D01*
X148437Y-86630D02*
X144438D01*
X142439Y-85630D02*
Y-79632D01*
X139440D01*
X138440Y-80632D01*
Y-82631D01*
X139440Y-83631D01*
X142439D01*
X132442Y-80632D02*
X133442Y-79632D01*
X135441D01*
X136441Y-80632D01*
Y-84630D01*
X135441Y-85630D01*
X133442D01*
X132442Y-84630D01*
Y-82631D01*
X134441D01*
X124445Y-79632D02*
Y-85630D01*
X115448Y-79632D02*
Y-84630D01*
X114448Y-85630D01*
X112449D01*
X111449Y-84630D01*
Y-79632D01*
X109450Y-85630D02*
X107450D01*
X108450D01*
Y-79632D01*
X109450Y-80632D01*
X104451Y-86630D02*
X100452D01*
X98453Y-85630D02*
Y-79632D01*
X95454D01*
X94454Y-80632D01*
Y-82631D01*
X95454Y-83631D01*
X98453D01*
X88456Y-80632D02*
X89456Y-79632D01*
X91455D01*
X92455Y-80632D01*
Y-84630D01*
X91455Y-85630D01*
X89456D01*
X88456Y-84630D01*
Y-82631D01*
X90456D01*
X129573Y-27908D02*
X128906D01*
X128240Y-27241D01*
Y-23909D01*
X130239D01*
X130905Y-24576D01*
Y-25908D01*
X130239Y-26575D01*
X128240D01*
X126240D02*
X124907D01*
X124241Y-25908D01*
Y-24576D01*
X124907Y-23909D01*
X126240D01*
X126907Y-24576D01*
Y-25908D01*
X126240Y-26575D01*
X122242D02*
X120909D01*
X120242Y-25908D01*
Y-24576D01*
X120909Y-23909D01*
X122242D01*
X122908Y-24576D01*
Y-25908D01*
X122242Y-26575D01*
X118909D02*
Y-25908D01*
X118243D01*
Y-26575D01*
X118909D01*
X114244Y-27908D02*
X113578D01*
X112911Y-27241D01*
Y-23909D01*
X114911D01*
X115577Y-24576D01*
Y-25908D01*
X114911Y-26575D01*
X112911D01*
X111578D02*
X110246D01*
X110912D01*
Y-22576D01*
X111578D01*
X108246Y-26575D02*
X105580Y-23909D01*
X101582D02*
X103581D01*
X104247Y-24576D01*
Y-25908D01*
X103581Y-26575D01*
X101582D01*
X100249D02*
Y-22576D01*
X98249D01*
X97583Y-23243D01*
Y-24576D01*
X98249Y-25242D01*
X100249D01*
X98916D02*
X97583Y-26575D01*
X96250D02*
X94917D01*
X95584D01*
Y-22576D01*
X96250Y-23243D01*
X90252D02*
X90918Y-22576D01*
X92251D01*
X92918Y-23243D01*
Y-25908D01*
X92251Y-26575D01*
X90918D01*
X90252Y-25908D01*
Y-24576D01*
X91585D01*
X86253Y-27908D02*
Y-23909D01*
X88253D01*
X88919Y-24576D01*
Y-25908D01*
X88253Y-26575D01*
X86253D01*
X82254Y-23243D02*
X82921Y-22576D01*
X84254D01*
X84920Y-23243D01*
Y-23909D01*
X84254Y-24576D01*
X82921D01*
X82254Y-25242D01*
Y-25908D01*
X82921Y-26575D01*
X84254D01*
X84920Y-25908D01*
X127907Y-13687D02*
X129906D01*
X130905Y-14687D01*
Y-18685D01*
X129906Y-19685D01*
X127907D01*
X126907Y-18685D01*
Y-14687D01*
X127907Y-13687D01*
X124907Y-21684D02*
Y-15686D01*
X121908D01*
X120909Y-16686D01*
Y-18685D01*
X121908Y-19685D01*
X124907D01*
X115910D02*
X117910D01*
X118909Y-18685D01*
Y-16686D01*
X117910Y-15686D01*
X115910D01*
X114911Y-16686D01*
Y-17686D01*
X118909D01*
X112911Y-19685D02*
Y-15686D01*
X109912D01*
X108913Y-16686D01*
Y-19685D01*
X106913Y-13687D02*
Y-19685D01*
X103914D01*
X102915Y-18685D01*
Y-17686D01*
X103914Y-16686D01*
X106913D01*
X103914D01*
X102915Y-15686D01*
Y-14687D01*
X103914Y-13687D01*
X106913D01*
X100915D02*
Y-19685D01*
X96917D01*
X90918Y-14687D02*
X91918Y-13687D01*
X93918D01*
X94917Y-14687D01*
Y-18685D01*
X93918Y-19685D01*
X91918D01*
X90918Y-18685D01*
X128406Y-33388D02*
X130072D01*
X130905Y-34220D01*
Y-37553D01*
X130072Y-38386D01*
X128406D01*
X127573Y-37553D01*
Y-34220D01*
X128406Y-33388D01*
X125907Y-40052D02*
Y-35054D01*
X123408D01*
X122575Y-35887D01*
Y-37553D01*
X123408Y-38386D01*
X125907D01*
X118410D02*
X120076D01*
X120909Y-37553D01*
Y-35887D01*
X120076Y-35054D01*
X118410D01*
X117577Y-35887D01*
Y-36720D01*
X120909D01*
X115910Y-38386D02*
Y-35054D01*
X113411D01*
X112578Y-35887D01*
Y-38386D01*
X102581Y-34220D02*
X103414Y-33388D01*
X105080D01*
X105914Y-34220D01*
Y-35054D01*
X105080Y-35887D01*
X103414D01*
X102581Y-36720D01*
Y-37553D01*
X103414Y-38386D01*
X105080D01*
X105914Y-37553D01*
X100082Y-38386D02*
X98416D01*
X97583Y-37553D01*
Y-35887D01*
X98416Y-35054D01*
X100082D01*
X100915Y-35887D01*
Y-37553D01*
X100082Y-38386D01*
X95917Y-35054D02*
Y-37553D01*
X95084Y-38386D01*
X92585D01*
Y-35054D01*
X90918D02*
Y-38386D01*
Y-36720D01*
X90085Y-35887D01*
X89252Y-35054D01*
X88419D01*
X82588D02*
X85087D01*
X85920Y-35887D01*
Y-37553D01*
X85087Y-38386D01*
X82588D01*
X78422D02*
X80089D01*
X80922Y-37553D01*
Y-35887D01*
X80089Y-35054D01*
X78422D01*
X77589Y-35887D01*
Y-36720D01*
X80922D01*
X70925Y-38386D02*
Y-33388D01*
X67593Y-38386D01*
Y-33388D01*
X65093Y-38386D02*
X63427D01*
X62594Y-37553D01*
Y-35887D01*
X63427Y-35054D01*
X65093D01*
X65927Y-35887D01*
Y-37553D01*
X65093Y-38386D01*
X60928D02*
Y-33388D01*
Y-36720D02*
X58429Y-35054D01*
X60928Y-36720D02*
X58429Y-38386D01*
X55930D02*
X54264D01*
X55097D01*
Y-35054D01*
X55930D01*
X50931D02*
X49265D01*
X48432Y-35887D01*
Y-38386D01*
X50931D01*
X51765Y-37553D01*
X50931Y-36720D01*
X48432D01*
X41768Y-33388D02*
Y-38386D01*
X39268D01*
X38436Y-37553D01*
Y-36720D01*
X39268Y-35887D01*
X41768D01*
X39268D01*
X38436Y-35054D01*
Y-34220D01*
X39268Y-33388D01*
X41768D01*
X36769D02*
Y-38386D01*
X33437D01*
X130828Y-40277D02*
Y-45276D01*
X128329D01*
X127496Y-44442D01*
Y-43609D01*
X128329Y-42776D01*
X130828D01*
X128329D01*
X127496Y-41943D01*
Y-41110D01*
X128329Y-40277D01*
X130828D01*
X124997Y-41943D02*
X123331D01*
X122498Y-42776D01*
Y-45276D01*
X124997D01*
X125830Y-44442D01*
X124997Y-43609D01*
X122498D01*
X119999Y-41110D02*
Y-41943D01*
X120832D01*
X119166D01*
X119999D01*
Y-44442D01*
X119166Y-45276D01*
X115833Y-41110D02*
Y-41943D01*
X116666D01*
X115000D01*
X115833D01*
Y-44442D01*
X115000Y-45276D01*
X110002D02*
X111668D01*
X112501Y-44442D01*
Y-42776D01*
X111668Y-41943D01*
X110002D01*
X109169Y-42776D01*
Y-43609D01*
X112501D01*
X107503Y-41943D02*
Y-45276D01*
Y-43609D01*
X106670Y-42776D01*
X105836Y-41943D01*
X105003D01*
X102504D02*
Y-44442D01*
X101671Y-45276D01*
X99172D01*
Y-46109D01*
X100005Y-46942D01*
X100838D01*
X99172Y-45276D02*
Y-41943D01*
X89175Y-41110D02*
X90008Y-40277D01*
X91674D01*
X92507Y-41110D01*
Y-44442D01*
X91674Y-45276D01*
X90008D01*
X89175Y-44442D01*
X87509Y-40277D02*
Y-45276D01*
Y-42776D01*
X86676Y-41943D01*
X85010D01*
X84177Y-42776D01*
Y-45276D01*
X81678Y-41943D02*
X80011D01*
X79178Y-42776D01*
Y-45276D01*
X81678D01*
X82511Y-44442D01*
X81678Y-43609D01*
X79178D01*
X77512Y-41943D02*
Y-45276D01*
Y-43609D01*
X76679Y-42776D01*
X75846Y-41943D01*
X75013D01*
X70848Y-46942D02*
X70015D01*
X69182Y-46109D01*
Y-41943D01*
X71681D01*
X72514Y-42776D01*
Y-44442D01*
X71681Y-45276D01*
X69182D01*
X65016D02*
X66682D01*
X67516Y-44442D01*
Y-42776D01*
X66682Y-41943D01*
X65016D01*
X64183Y-42776D01*
Y-43609D01*
X67516D01*
X62517Y-41943D02*
Y-45276D01*
Y-43609D01*
X61684Y-42776D01*
X60851Y-41943D01*
X60018D01*
X119095Y-92443D02*
Y-97441D01*
X116595D01*
X115762Y-96608D01*
Y-93276D01*
X116595Y-92443D01*
X119095D01*
X111597Y-97441D02*
X113263D01*
X114096Y-96608D01*
Y-94942D01*
X113263Y-94109D01*
X111597D01*
X110764Y-94942D01*
Y-95775D01*
X114096D01*
X109098Y-97441D02*
X106598D01*
X105765Y-96608D01*
X106598Y-95775D01*
X108265D01*
X109098Y-94942D01*
X108265Y-94109D01*
X105765D01*
X104099Y-97441D02*
X102433D01*
X103266D01*
Y-94109D01*
X104099D01*
X98268Y-99107D02*
X97435D01*
X96602Y-98274D01*
Y-94109D01*
X99101D01*
X99934Y-94942D01*
Y-96608D01*
X99101Y-97441D01*
X96602D01*
X94936D02*
Y-94109D01*
X92436D01*
X91603Y-94942D01*
Y-97441D01*
X87438D02*
X89104D01*
X89937Y-96608D01*
Y-94942D01*
X89104Y-94109D01*
X87438D01*
X86605Y-94942D01*
Y-95775D01*
X89937D01*
X81607Y-92443D02*
Y-97441D01*
X84106D01*
X84939Y-96608D01*
Y-94942D01*
X84106Y-94109D01*
X81607D01*
X74942Y-92443D02*
Y-97441D01*
X72443D01*
X71610Y-96608D01*
Y-95775D01*
Y-94942D01*
X72443Y-94109D01*
X74942D01*
X69944D02*
Y-96608D01*
X69111Y-97441D01*
X66611D01*
Y-98274D01*
X67445Y-99107D01*
X68278D01*
X66611Y-97441D02*
Y-94109D01*
X59947Y-92443D02*
X56615D01*
X58281D01*
Y-97441D01*
X54949Y-92443D02*
Y-97441D01*
Y-94942D01*
X54115Y-94109D01*
X52449D01*
X51616Y-94942D01*
Y-97441D01*
X49950D02*
X48284D01*
X49117D01*
Y-94109D01*
X49950D01*
X45785Y-99107D02*
X44952D01*
X44119Y-98274D01*
Y-94109D01*
X40786Y-97441D02*
X38287D01*
X37454Y-96608D01*
X38287Y-95775D01*
X39954D01*
X40786Y-94942D01*
X39954Y-94109D01*
X37454D01*
X27457Y-93276D02*
X28291Y-92443D01*
X29957D01*
X30790Y-93276D01*
Y-94109D01*
X29957Y-94942D01*
X28291D01*
X27457Y-95775D01*
Y-96608D01*
X28291Y-97441D01*
X29957D01*
X30790Y-96608D01*
X25791Y-97441D02*
X24125D01*
X24958D01*
Y-94109D01*
X25791D01*
X21626Y-97441D02*
X19960D01*
X20793D01*
Y-92443D01*
X21626D01*
X17461Y-97441D02*
X15795D01*
X16628D01*
Y-92443D01*
X17461D01*
X10796Y-97441D02*
X12462D01*
X13295Y-96608D01*
Y-94942D01*
X12462Y-94109D01*
X10796D01*
X9963Y-94942D01*
Y-95775D01*
X13295D01*
X8297Y-97441D02*
Y-94109D01*
X5798D01*
X4965Y-94942D01*
Y-97441D01*
X156434Y-11734D02*
X157434Y-10734D01*
X159433D01*
X160433Y-11734D01*
Y-15733D01*
X159433Y-16732D01*
X157434D01*
X156434Y-15733D01*
Y-13733D01*
X158434D01*
X154435Y-16732D02*
Y-10734D01*
X150436Y-16732D01*
Y-10734D01*
X148437D02*
Y-16732D01*
X145438D01*
X144438Y-15733D01*
Y-11734D01*
X145438Y-10734D01*
X148437D01*
X160433Y-21576D02*
X159433Y-20577D01*
X157434D01*
X156434Y-21576D01*
Y-22576D01*
X157434Y-23576D01*
X158434D01*
X157434D01*
X156434Y-24576D01*
Y-25575D01*
X157434Y-26575D01*
X159433D01*
X160433Y-25575D01*
X154435Y-20577D02*
Y-24576D01*
X152436Y-26575D01*
X150436Y-24576D01*
Y-20577D01*
X148437Y-21576D02*
X147437Y-20577D01*
X145438D01*
X144438Y-21576D01*
Y-22576D01*
X145438Y-23576D01*
X146438D01*
X145438D01*
X144438Y-24576D01*
Y-25575D01*
X145438Y-26575D01*
X147437D01*
X148437Y-25575D01*
X156434Y-30419D02*
X160433D01*
Y-33418D01*
X158434Y-32419D01*
X157434D01*
X156434Y-33418D01*
Y-35418D01*
X157434Y-36417D01*
X159433D01*
X160433Y-35418D01*
X154435Y-30419D02*
Y-34418D01*
X152436Y-36417D01*
X150436Y-34418D01*
Y-30419D01*
X156434Y-41262D02*
X157434Y-40262D01*
X159433D01*
X160433Y-41262D01*
Y-45260D01*
X159433Y-46260D01*
X157434D01*
X156434Y-45260D01*
Y-43261D01*
X158434D01*
X154435Y-46260D02*
Y-40262D01*
X150436Y-46260D01*
Y-40262D01*
X148437D02*
Y-46260D01*
X145438D01*
X144438Y-45260D01*
Y-41262D01*
X145438Y-40262D01*
X148437D01*
X160433Y-50104D02*
Y-54103D01*
X158434Y-56102D01*
X156434Y-54103D01*
Y-50104D01*
X154435D02*
X152436D01*
X153435D01*
Y-56102D01*
X154435D01*
X152436D01*
X149437D02*
Y-50104D01*
X145438Y-56102D01*
Y-50104D01*
M02*
