M48
;Layer_Color=9474304
;FILE_FORMAT=2:5
INCH,LZ
;TYPE=PLATED
T1F00S00C0.01181
T2F00S00C0.03543
%
T01
X0004321Y-0064754
Y-0060423
X0004715Y-0056486
X0006683Y-0047431
X0009045
X0011407
X0029911Y-0045463
X0032274
X0034636
X0044478Y-0050974
X0047628Y-0049006
X004999Y-0045463
X0052352
X0054715
X005748Y-0047252
X006062Y-0047431
X0057471Y-0056486
Y-0058848
Y-0061211
Y-0067904
Y-0070266
Y-0072628
X006377Y-0076171
Y-0078534
X0062982Y-0082077
X0061408Y-008562
Y-0089163
X0056289Y-0091919
X0051565Y-008877
X004566Y-0091919
Y-0076959
X0043297
X0048022
X0040935Y-0074597
Y-0072234
Y-0069872
X0042904Y-0066723
X0045266
X0047628
X0046052Y-0062392
X0038573Y-0066329
X003188Y-0065935
X0027549Y-0066329
X00244Y-006751
X0022037
X0019675
X0016132Y-0069872
Y-0072234
Y-0074597
X0019282Y-0077352
X0021644
X0024006
X003503Y-007814
X0025581Y-0058848
X0067707Y-0052943
X0088573Y-0055305
Y-0057667
Y-006003
X008503Y-006436
X0081486Y-0063967
X0087392Y-0067116
Y-0071447
Y-0075778
X0088967Y-0078927
X0087392Y-0082077
X0091329
X0095266
X0099203
X010314
X0107077
X0111014
X0114951
X0118888
X0122825
X0107077Y-0091526
X0098415Y-0090738
X0094085Y-0087589
X0090934Y-0093101
X0075187Y-0086014
X0072825
X0070463
X0070856Y-0081683
X0073219
X0075581
Y-0078534
X0073219
X0070856
X0070069Y-0074597
X0072431
X0074793
X0093297Y-0068691
X0094085Y-00494
X0091723
X0096447
X0127549
X0129911
X0132274
X0135863Y-0044478
X0124006Y-0054911
Y-0057274
Y-0059636
X0133455Y-0071053
X0136211Y-0074597
X0134636Y-0082077
X0138573
X014251
X0148022Y-0080502
X0150383Y-0076959
X0154715Y-007814
Y-0084045
X014999Y-0084439
X0152351Y-0071053
X015314Y-0055305
Y-0052943
Y-0050581
X0157077
Y-0052943
Y-0055305
X016062
Y-0052943
Y-0050581
X0130699Y-0082077
X0126762
X0127155Y-0039163
X0129518
X013188
X0140541Y-0040738
X0141723Y-0037195
X0144085
X0146447
X015314Y-0036014
Y-0033652
Y-0031289
X0157077
Y-0033652
Y-0036014
X016062
Y-0033652
Y-0031289
Y-0025384
Y-0023022
Y-002066
X0157077
Y-0023022
Y-0025384
X0148445Y-002499
X0140571
X013565
X0132697
Y-0027943
X013565
X0129745
Y-002499
X0133107Y-0016525
X0134242Y-0003337
X0130305
X0126368
X0138179
X0142116
X0146053
X0148022Y-0005305
X014999Y-0007274
X0139405Y-0032668
X012128Y-0012588
X0122431Y-0003337
X0118494
X0114557
X011062
X0106683
X0102746
X0098809
X0094872
X0090935
X0086998
X0083061
X0079124
X0075187
X007125
X0067313
X0069334Y-0007077
X0069282Y-001003
Y-0012392
Y-0014754
X008035Y-0017313
X0084295Y-0015344
Y-0012195
X0088232
X0092556Y-002125
X0091375Y-0025187
X0087832
X0079564Y-0026362
Y-0024006
X0077202
X0077208Y-0026368
X0077208Y-003503
X0065588Y-0035226
X0051565Y-0033275
X0047037Y-0032274
X004786Y-002252
X0055896Y-0022628
X0058258
X006062
X0061014Y-0009242
X0058652
X0056289
X003937Y-0017717
X0038573Y-0026171
X0035423
X0041723
X0030305Y-0024597
X0030699Y-0041132
X0033061
X0035817
X0038179
X0040541
X0028337
X0102352Y-0024203
X0104715
X0107077
X0111848Y-0007667
X0098068
T02
X0167707Y-0083179
X0177707
Y-0073179
X0167707
Y-0063179
X0177707
Y-0053179
X0167707
Y-0043179
X0177707
Y-0033179
X0167707
Y-0023179
X0177707
Y-0013179
X0167707
M30
