%FSLAX25Y25*%
%MOIN*%
G70*
G01*
G75*
G04 Layer_Color=16711935*
%ADD10R,0.02165X0.03740*%
%ADD11R,0.04400X0.05700*%
%ADD12R,0.06890X0.05709*%
%ADD13O,0.02953X0.01181*%
%ADD14R,0.05700X0.04400*%
%ADD15R,0.03937X0.02756*%
%ADD16R,0.02600X0.03800*%
%ADD17R,0.05709X0.05709*%
%ADD18R,0.00984X0.01969*%
%ADD19R,0.01181X0.01969*%
%ADD20R,0.01969X0.00984*%
%ADD21R,0.01969X0.01181*%
%ADD22R,0.08465X0.06299*%
%ADD23O,0.00945X0.02362*%
%ADD24R,0.02200X0.02400*%
%ADD25R,0.17700X0.07100*%
%ADD26R,0.07100X0.14200*%
%ADD27R,0.02400X0.02200*%
%ADD28R,0.05906X0.05906*%
%ADD29R,0.05906X0.04724*%
%ADD30C,0.00800*%
%ADD31C,0.00787*%
%ADD32C,0.01969*%
%ADD33C,0.01181*%
%ADD34C,0.03937*%
%ADD35C,0.02378*%
%ADD36C,0.05906*%
%ADD37R,0.05906X0.05906*%
%ADD38C,0.00984*%
%ADD39C,0.00394*%
%ADD40C,0.00600*%
%ADD41C,0.01000*%
%ADD42R,0.03365X0.04940*%
%ADD43R,0.05600X0.06900*%
%ADD44R,0.08090X0.06909*%
%ADD45O,0.04153X0.02381*%
%ADD46R,0.06900X0.05600*%
%ADD47R,0.05137X0.03956*%
%ADD48R,0.03800X0.05000*%
%ADD49R,0.06909X0.06909*%
%ADD50R,0.02184X0.03169*%
%ADD51R,0.02381X0.03169*%
%ADD52R,0.03169X0.02184*%
%ADD53R,0.03169X0.02381*%
%ADD54R,0.08865X0.06699*%
%ADD55O,0.01345X0.02762*%
%ADD56R,0.03400X0.03600*%
%ADD57R,0.18900X0.08300*%
%ADD58R,0.08300X0.15400*%
%ADD59R,0.03600X0.03400*%
%ADD60R,0.07106X0.07106*%
%ADD61R,0.07106X0.05924*%
%ADD62C,0.03578*%
%ADD63C,0.07106*%
%ADD64R,0.07106X0.07106*%
D62*
X65588Y-35226D02*
D03*
X98068Y-7667D02*
D03*
X111848D02*
D03*
X94085Y-87589D02*
D03*
X135863Y-44478D02*
D03*
X133107Y-16525D02*
D03*
X30305Y-24597D02*
D03*
D63*
X177707Y-83179D02*
D03*
X167707D02*
D03*
X177707Y-73179D02*
D03*
X167707D02*
D03*
X177707Y-63179D02*
D03*
X167707D02*
D03*
X177707Y-53179D02*
D03*
X167707D02*
D03*
X177707Y-43179D02*
D03*
X167707D02*
D03*
X177707Y-33179D02*
D03*
X167707D02*
D03*
X177707Y-23179D02*
D03*
X167707D02*
D03*
X177707Y-13179D02*
D03*
D64*
X167707D02*
D03*
M02*
