%FSLAX25Y25*%
%MOIN*%
G70*
G01*
G75*
G04 Layer_Color=8421504*
%ADD10R,0.05906X0.04724*%
%ADD11R,0.05906X0.05906*%
%ADD12R,0.02400X0.02200*%
%ADD13R,0.05700X0.04400*%
%ADD14R,0.02600X0.03800*%
%ADD15R,0.04400X0.05700*%
%ADD16R,0.07100X0.14200*%
%ADD17R,0.17700X0.07100*%
%ADD18R,0.02200X0.02400*%
%ADD19O,0.00145X0.01562*%
%ADD20R,0.01969X0.00984*%
%ADD21R,0.01969X0.01181*%
%ADD22R,0.00984X0.01969*%
%ADD23R,0.01181X0.01969*%
%ADD24R,0.03937X0.02756*%
%ADD25O,0.02953X0.01181*%
%ADD26R,0.06890X0.05709*%
%ADD27R,0.02165X0.03740*%
G36*
X137093Y-29321D02*
X133396D01*
Y-23943D01*
X137093D01*
Y-29321D01*
D02*
G37*
G36*
X132609Y-29301D02*
X128912D01*
Y-23923D01*
X132609D01*
Y-29301D01*
D02*
G37*
G36*
X81735Y-28533D02*
X75043D01*
Y-21840D01*
X81735D01*
Y-28533D01*
D02*
G37*
D10*
X21644Y-72234D02*
D03*
X33848D02*
D03*
X46053D02*
D03*
D11*
X27746Y-96250D02*
D03*
X39951D02*
D03*
D12*
X135863Y-40223D02*
D03*
Y-36923D02*
D03*
D13*
X119223Y-21086D02*
D03*
Y-28186D02*
D03*
X144115Y-26755D02*
D03*
Y-33855D02*
D03*
X88732Y-15574D02*
D03*
Y-22674D02*
D03*
X38179Y-38383D02*
D03*
Y-31283D02*
D03*
X111848Y-20076D02*
D03*
Y-12976D02*
D03*
X98068Y-20076D02*
D03*
Y-12976D02*
D03*
X30699Y-31283D02*
D03*
Y-38383D02*
D03*
D14*
X141353Y-8652D02*
D03*
X135853D02*
D03*
X88619Y-36211D02*
D03*
X83119D02*
D03*
X12976Y-9242D02*
D03*
X7476D02*
D03*
X12976Y-21053D02*
D03*
X7476D02*
D03*
D15*
X72871Y-11407D02*
D03*
X79971D02*
D03*
X65732Y-89951D02*
D03*
X72831D02*
D03*
X26361Y-9242D02*
D03*
X33461D02*
D03*
X86611Y-89951D02*
D03*
X79511D02*
D03*
X75574Y-70266D02*
D03*
X82674D02*
D03*
X33461Y-17116D02*
D03*
X26361D02*
D03*
X68894Y-70266D02*
D03*
X61795D02*
D03*
D16*
X94525Y-58258D02*
D03*
X129925D02*
D03*
D17*
X58704Y-14750D02*
D03*
Y-27750D02*
D03*
D18*
X140253Y-14163D02*
D03*
X136953D02*
D03*
X142858Y-18100D02*
D03*
X146158D02*
D03*
X130427Y-13376D02*
D03*
X127127D02*
D03*
X70046Y-35030D02*
D03*
X73346D02*
D03*
D19*
X129065Y-32116D02*
D03*
X131034D02*
D03*
X133002D02*
D03*
X134971D02*
D03*
X136939D02*
D03*
Y-21092D02*
D03*
X134971D02*
D03*
X133002D02*
D03*
X131034D02*
D03*
X129065D02*
D03*
D20*
X73468Y-22234D02*
D03*
Y-28140D02*
D03*
X83310D02*
D03*
Y-22234D02*
D03*
D21*
X73468Y-24203D02*
D03*
Y-26171D02*
D03*
X83310D02*
D03*
Y-24203D02*
D03*
D22*
X75436Y-30108D02*
D03*
X81342D02*
D03*
Y-20266D02*
D03*
X75436D02*
D03*
D23*
X77405Y-30108D02*
D03*
X79373D02*
D03*
Y-20266D02*
D03*
X77405D02*
D03*
D24*
X52352Y-52746D02*
D03*
Y-56486D02*
D03*
Y-60226D02*
D03*
X62589Y-52746D02*
D03*
Y-56486D02*
D03*
Y-60226D02*
D03*
X9045Y-52746D02*
D03*
Y-56486D02*
D03*
Y-60226D02*
D03*
X19282Y-52746D02*
D03*
Y-56486D02*
D03*
Y-60226D02*
D03*
D25*
X67411Y-77156D02*
D03*
Y-79124D02*
D03*
Y-81093D02*
D03*
Y-83061D02*
D03*
X79026D02*
D03*
Y-81093D02*
D03*
Y-79124D02*
D03*
Y-77156D02*
D03*
D26*
X73219Y-80108D02*
D03*
D27*
X32077Y-51171D02*
D03*
X35817D02*
D03*
X39557D02*
D03*
Y-61801D02*
D03*
X35817D02*
D03*
X32077D02*
D03*
M02*
