%FSLAX25Y25*%
%MOIN*%
G70*
G01*
G75*
G04 Layer_Color=8421504*
%ADD10R,0.02165X0.03740*%
%ADD11R,0.04400X0.05700*%
%ADD12R,0.06890X0.05709*%
%ADD13O,0.02953X0.01181*%
%ADD14R,0.05700X0.04400*%
%ADD15R,0.03937X0.02756*%
%ADD16R,0.02600X0.03800*%
%ADD17R,0.00984X0.01969*%
%ADD18R,0.01181X0.01969*%
%ADD19R,0.01969X0.00984*%
%ADD20R,0.01969X0.01181*%
%ADD21O,0.00145X0.01562*%
%ADD22R,0.02200X0.02400*%
%ADD23R,0.17700X0.07100*%
%ADD24R,0.07100X0.14200*%
%ADD25R,0.02400X0.02200*%
%ADD26R,0.05906X0.05906*%
%ADD27R,0.05906X0.04724*%
G36*
X137093Y-29321D02*
X133396D01*
Y-23943D01*
X137093D01*
Y-29321D01*
D02*
G37*
G36*
X132609Y-29301D02*
X128912D01*
Y-23923D01*
X132609D01*
Y-29301D01*
D02*
G37*
G36*
X81735Y-28533D02*
X75043D01*
Y-21840D01*
X81735D01*
Y-28533D01*
D02*
G37*
D10*
X32077Y-61801D02*
D03*
X35817D02*
D03*
X39557D02*
D03*
Y-51171D02*
D03*
X35817D02*
D03*
X32077D02*
D03*
D11*
X61795Y-70266D02*
D03*
X68894D02*
D03*
X26361Y-17116D02*
D03*
X33461D02*
D03*
X82674Y-70266D02*
D03*
X75574D02*
D03*
X79511Y-89951D02*
D03*
X86611D02*
D03*
X33461Y-9242D02*
D03*
X26361D02*
D03*
X72831Y-89951D02*
D03*
X65732D02*
D03*
X79971Y-11407D02*
D03*
X72871D02*
D03*
D12*
X73219Y-80108D02*
D03*
D13*
X79026Y-77156D02*
D03*
Y-79124D02*
D03*
Y-81093D02*
D03*
Y-83061D02*
D03*
X67411D02*
D03*
Y-81093D02*
D03*
Y-79124D02*
D03*
Y-77156D02*
D03*
D14*
X30699Y-38383D02*
D03*
Y-31283D02*
D03*
X98068Y-12976D02*
D03*
Y-20076D02*
D03*
X111848Y-12976D02*
D03*
Y-20076D02*
D03*
X38179Y-31283D02*
D03*
Y-38383D02*
D03*
X88732Y-22674D02*
D03*
Y-15574D02*
D03*
X144115Y-33855D02*
D03*
Y-26755D02*
D03*
X119223Y-28186D02*
D03*
Y-21086D02*
D03*
D15*
X19282Y-60226D02*
D03*
Y-56486D02*
D03*
Y-52746D02*
D03*
X9045Y-60226D02*
D03*
Y-56486D02*
D03*
Y-52746D02*
D03*
X62589Y-60226D02*
D03*
Y-56486D02*
D03*
Y-52746D02*
D03*
X52352Y-60226D02*
D03*
Y-56486D02*
D03*
Y-52746D02*
D03*
D16*
X7476Y-21053D02*
D03*
X12976D02*
D03*
X7476Y-9242D02*
D03*
X12976D02*
D03*
X83119Y-36211D02*
D03*
X88619D02*
D03*
X135853Y-8652D02*
D03*
X141353D02*
D03*
D17*
X75436Y-20266D02*
D03*
X81342D02*
D03*
Y-30108D02*
D03*
X75436D02*
D03*
D18*
X77405Y-20266D02*
D03*
X79373D02*
D03*
Y-30108D02*
D03*
X77405D02*
D03*
D19*
X83310Y-22234D02*
D03*
Y-28140D02*
D03*
X73468D02*
D03*
Y-22234D02*
D03*
D20*
X83310Y-24203D02*
D03*
Y-26171D02*
D03*
X73468D02*
D03*
Y-24203D02*
D03*
D21*
X129065Y-21092D02*
D03*
X131034D02*
D03*
X133002D02*
D03*
X134971D02*
D03*
X136939D02*
D03*
Y-32116D02*
D03*
X134971D02*
D03*
X133002D02*
D03*
X131034D02*
D03*
X129065D02*
D03*
D22*
X73346Y-35030D02*
D03*
X70046D02*
D03*
X127127Y-13376D02*
D03*
X130427D02*
D03*
X146158Y-18100D02*
D03*
X142858D02*
D03*
X136953Y-14163D02*
D03*
X140253D02*
D03*
D23*
X58704Y-27750D02*
D03*
Y-14750D02*
D03*
D24*
X129925Y-58258D02*
D03*
X94525D02*
D03*
D25*
X135863Y-36923D02*
D03*
Y-40223D02*
D03*
D26*
X39951Y-96250D02*
D03*
X27746D02*
D03*
D27*
X46053Y-72234D02*
D03*
X33848D02*
D03*
X21644D02*
D03*
M02*
